<svg version="1.1" viewBox="0.0 0.0 305.2204724409449 255.01312335958005" fill="none" stroke="none" stroke-linecap="square" stroke-miterlimit="10" xmlns:xlink="http://www.w3.org/1999/xlink" xmlns="http://www.w3.org/2000/svg"><clipPath id="p.0"><path d="m0 0l305.22046 0l0 255.01312l-305.22046 0l0 -255.01312z" clip-rule="nonzero"/></clipPath><g clip-path="url(#p.0)"><path fill="#000000" fill-opacity="0.0" d="m0 0l305.22046 0l0 255.01312l-305.22046 0z" fill-rule="evenodd"/><path fill="#ff9a9e" d="m151.26772 60.82152c62.572174 -149.31496 306.6037 0 0 191.97638c-306.60367 -191.97638 -62.572174 -341.29132 0 -191.97638z" fill-rule="evenodd"/><path stroke="#ff9a9e" stroke-width="1.0" stroke-linejoin="round" stroke-linecap="butt" d="m151.26772 60.82152c62.572174 -149.31496 306.6037 0 0 191.97638c-306.60367 -191.97638 -62.572174 -341.29132 0 -191.97638z" fill-rule="evenodd"/><path fill="#000000" fill-opacity="0.0" d="m50.85302 73.43569l201.76376 0l0 65.57481l-201.76376 0z" fill-rule="evenodd"/><path fill="#000000" d="m88.572464 157.42935q-2.0 0 -3.515625 -1.09375q-1.515625 -1.078125 -1.515625 -3.15625q0 -2.5625 1.28125 -4.5625q1.265625 -2.0 3.421875 -3.6875q2.171875 -1.671875 4.96875 -3.1875q2.796875 -1.515625 5.84375 -3.03125q1.125 -2.96875 2.28125 -6.609375q1.15625 -3.640625 2.203125 -8.031258q-2.5625 4.1562576 -5.484375 7.1562576q-2.921875 3.0 -6.203125 3.0q-1.515625 0 -3.0 -0.671875q-1.484375 -0.6875 -2.453125 -2.125q-0.953125 -1.453125 -0.953125 -3.6875076q0 -2.234375 0.765625 -5.1875q0.765625 -2.96875 1.875 -5.765625q1.125 -2.8125 2.328125 -4.640625q1.203125 -1.84375 2.078125 -1.84375q0.328125 0 1.15625 0.25q0.84375 0.234375 1.59375 0.671875q0.765625 0.4375 0.765625 0.921875q-0.71875 1.03125 -1.59375 2.953125q-0.875 1.921875 -1.71875 4.28125q-0.84375 2.359375 -1.40625 4.609375q-0.5625 2.234375 -0.5625 3.828125q0 1.4375076 0.640625 2.3281326q0.640625 0.875 2.25 0.875q1.515625 0 3.390625 -1.46875q1.890625 -1.484375 3.765625 -3.7968826q1.875 -2.328125 3.484375 -4.96875q0.234375 -0.890625 0.4375 -1.796875q0.203125 -0.921875 0.359375 -1.890625q0.234375 -1.125 1.15625 -2.59375q0.921875 -1.484375 2.921875 -1.484375q0.40625 0 0.796875 0.046875q0.40625 0.03125 0.890625 0.1875q0 1.28125 -0.765625 4.765625q-0.765625 3.484375 -2.171875 8.125q-1.390625 4.6406326 -3.3125 9.515633q3.765625 -1.4375 7.359375 -4.75q3.609375 -3.3281326 5.84375 -8.843758l1.046875 0.796875q-1.203125 3.84375 -3.65625 6.6875076q-2.4375 2.828125 -5.484375 4.875q-3.03125 2.03125 -5.984375 3.390625q-2.078125 5.125 -4.53125 9.59375q-2.4375 4.484375 -5.125 7.25q-2.671875 2.765625 -5.46875 2.765625zm-0.390625 -2.5625q1.1875 0 4.03125 -3.171875q2.84375 -3.15625 6.046875 -11.078125q-3.28125 1.765625 -6.09375 3.484375q-2.796875 1.71875 -4.484375 3.71875q-1.671875 2.0 -1.671875 4.640625q0 0.640625 0.484375 1.515625q0.484375 0.890625 1.6875 0.890625zm60.951202 -18.96875q0.40625 -2.5625 0.59375 -4.5625q0.203125 -2.0 0.234375 -4.0312576q0.046875 -2.046875 0.046875 -4.6875q-2.46875 0 -4.4375 0.046875q-1.953125 0.046875 -3.875 0.25q-1.921875 0.1875 -4.40625 0.59375q0.8125 -2.171875 4.328125 -3.0q3.515625 -0.84375 8.390625 -0.921875l0 -4.0q0 -1.6875 0.4375 -3.96875q0.453125 -2.28125 1.890625 -4.28125q0.15625 1.609375 0.390625 4.96875q0.25 3.359375 0.328125 7.28125q4.078125 0.078125 7.59375 0.328125q3.53125 0.234375 5.203125 0.390625q-2.0 1.4375 -4.28125 1.875q-2.28125 0.4375 -3.953125 0.4375l-4.5625 0q-0.078125 3.453125 -0.4375 6.2500076q-0.359375 2.796875 -1.171875 4.640625q-0.796875 1.828125 -2.3125 2.390625zm55.205566 1.203125q-2.71875 0 -4.28125 -1.4375q-1.5625 -1.4375 -1.5625 -3.765625q0 -2.390625 1.109375 -5.0312576q1.125 -2.640625 2.203125 -5.234375q1.09375 -2.609375 1.09375 -4.6875q0 -2.5625 -1.484375 -3.796875q-1.484375 -1.25 -3.0 -2.28125q-1.84375 4.71875 -3.84375 8.96875q-2.0 4.234375 -3.28125 6.390625l-0.71875 -1.359375q1.125 -2.078125 2.921875 -6.078125q1.796875 -4.0 3.5625 -9.125q-0.796875 -0.796875 -0.796875 -1.921875q0 -2.40625 1.359375 -3.921875q1.359375 -1.515625 2.0 -1.515625q0.875 0 0.984375 0.765625q0.125 0.75 0.125 1.15625q0 0.390625 -0.4375 1.5625q-0.4375 1.15625 -0.4375 1.390625q0 1.125 1.234375 2.046875q1.25 0.921875 2.84375 2.078125q1.609375 1.15625 2.84375 2.796875q1.234375 1.640625 1.234375 4.203125q0 2.40625 -1.0 4.890625q-1.0 2.46875 -2.0 4.71875q-1.0 2.2343826 -1.0 3.9062576q0 1.4375 0.71875 1.921875q0.71875 0.484375 1.6875 0.484375q1.921875 0 3.953125 -1.203125q2.046875 -1.203125 3.96875 -3.03125q1.921875 -1.84375 3.4375 -3.8750076q1.515625 -2.046875 2.234375 -3.8125l1.046875 0.796875q-1.515625 3.359375 -4.15625 6.6093826q-2.640625 3.234375 -5.890625 5.3125q-3.234375 2.078125 -6.671875 2.078125z" fill-rule="nonzero"/></g></svg>